<?xml version="1.0" standalone="yes"?><svg version="1.1" xmlns="http://www.w3.org/2000/svg" xmlns:xlink="http://www.w3.org/1999/xlink" xmlns:ev="http://www.w3.org/2001/xml-events" width="222" height="222" shape-rendering="crispEdges"><rect width="6" height="6" x="0" y="0" fill="#000"/><rect width="6" height="6" x="6" y="0" fill="#000"/><rect width="6" height="6" x="12" y="0" fill="#000"/><rect width="6" height="6" x="18" y="0" fill="#000"/><rect width="6" height="6" x="24" y="0" fill="#000"/><rect width="6" height="6" x="30" y="0" fill="#000"/><rect width="6" height="6" x="36" y="0" fill="#000"/><rect width="6" height="6" x="48" y="0" fill="#000"/><rect width="6" height="6" x="60" y="0" fill="#000"/><rect width="6" height="6" x="78" y="0" fill="#000"/><rect width="6" height="6" x="90" y="0" fill="#000"/><rect width="6" height="6" x="96" y="0" fill="#000"/><rect width="6" height="6" x="114" y="0" fill="#000"/><rect width="6" height="6" x="120" y="0" fill="#000"/><rect width="6" height="6" x="126" y="0" fill="#000"/><rect width="6" height="6" x="132" y="0" fill="#000"/><rect width="6" height="6" x="138" y="0" fill="#000"/><rect width="6" height="6" x="150" y="0" fill="#000"/><rect width="6" height="6" x="168" y="0" fill="#000"/><rect width="6" height="6" x="180" y="0" fill="#000"/><rect width="6" height="6" x="186" y="0" fill="#000"/><rect width="6" height="6" x="192" y="0" fill="#000"/><rect width="6" height="6" x="198" y="0" fill="#000"/><rect width="6" height="6" x="204" y="0" fill="#000"/><rect width="6" height="6" x="210" y="0" fill="#000"/><rect width="6" height="6" x="216" y="0" fill="#000"/><rect width="6" height="6" x="0" y="6" fill="#000"/><rect width="6" height="6" x="36" y="6" fill="#000"/><rect width="6" height="6" x="48" y="6" fill="#000"/><rect width="6" height="6" x="72" y="6" fill="#000"/><rect width="6" height="6" x="78" y="6" fill="#000"/><rect width="6" height="6" x="96" y="6" fill="#000"/><rect width="6" height="6" x="132" y="6" fill="#000"/><rect width="6" height="6" x="138" y="6" fill="#000"/><rect width="6" height="6" x="144" y="6" fill="#000"/><rect width="6" height="6" x="156" y="6" fill="#000"/><rect width="6" height="6" x="162" y="6" fill="#000"/><rect width="6" height="6" x="168" y="6" fill="#000"/><rect width="6" height="6" x="180" y="6" fill="#000"/><rect width="6" height="6" x="216" y="6" fill="#000"/><rect width="6" height="6" x="0" y="12" fill="#000"/><rect width="6" height="6" x="12" y="12" fill="#000"/><rect width="6" height="6" x="18" y="12" fill="#000"/><rect width="6" height="6" x="24" y="12" fill="#000"/><rect width="6" height="6" x="36" y="12" fill="#000"/><rect width="6" height="6" x="48" y="12" fill="#000"/><rect width="6" height="6" x="54" y="12" fill="#000"/><rect width="6" height="6" x="66" y="12" fill="#000"/><rect width="6" height="6" x="78" y="12" fill="#000"/><rect width="6" height="6" x="84" y="12" fill="#000"/><rect width="6" height="6" x="90" y="12" fill="#000"/><rect width="6" height="6" x="96" y="12" fill="#000"/><rect width="6" height="6" x="114" y="12" fill="#000"/><rect width="6" height="6" x="120" y="12" fill="#000"/><rect width="6" height="6" x="126" y="12" fill="#000"/><rect width="6" height="6" x="132" y="12" fill="#000"/><rect width="6" height="6" x="156" y="12" fill="#000"/><rect width="6" height="6" x="168" y="12" fill="#000"/><rect width="6" height="6" x="180" y="12" fill="#000"/><rect width="6" height="6" x="192" y="12" fill="#000"/><rect width="6" height="6" x="198" y="12" fill="#000"/><rect width="6" height="6" x="204" y="12" fill="#000"/><rect width="6" height="6" x="216" y="12" fill="#000"/><rect width="6" height="6" x="0" y="18" fill="#000"/><rect width="6" height="6" x="12" y="18" fill="#000"/><rect width="6" height="6" x="18" y="18" fill="#000"/><rect width="6" height="6" x="24" y="18" fill="#000"/><rect width="6" height="6" x="36" y="18" fill="#000"/><rect width="6" height="6" x="54" y="18" fill="#000"/><rect width="6" height="6" x="72" y="18" fill="#000"/><rect width="6" height="6" x="84" y="18" fill="#000"/><rect width="6" height="6" x="90" y="18" fill="#000"/><rect width="6" height="6" x="96" y="18" fill="#000"/><rect width="6" height="6" x="102" y="18" fill="#000"/><rect width="6" height="6" x="114" y="18" fill="#000"/><rect width="6" height="6" x="120" y="18" fill="#000"/><rect width="6" height="6" x="132" y="18" fill="#000"/><rect width="6" height="6" x="144" y="18" fill="#000"/><rect width="6" height="6" x="150" y="18" fill="#000"/><rect width="6" height="6" x="156" y="18" fill="#000"/><rect width="6" height="6" x="180" y="18" fill="#000"/><rect width="6" height="6" x="192" y="18" fill="#000"/><rect width="6" height="6" x="198" y="18" fill="#000"/><rect width="6" height="6" x="204" y="18" fill="#000"/><rect width="6" height="6" x="216" y="18" fill="#000"/><rect width="6" height="6" x="0" y="24" fill="#000"/><rect width="6" height="6" x="12" y="24" fill="#000"/><rect width="6" height="6" x="18" y="24" fill="#000"/><rect width="6" height="6" x="24" y="24" fill="#000"/><rect width="6" height="6" x="36" y="24" fill="#000"/><rect width="6" height="6" x="60" y="24" fill="#000"/><rect width="6" height="6" x="84" y="24" fill="#000"/><rect width="6" height="6" x="90" y="24" fill="#000"/><rect width="6" height="6" x="132" y="24" fill="#000"/><rect width="6" height="6" x="150" y="24" fill="#000"/><rect width="6" height="6" x="156" y="24" fill="#000"/><rect width="6" height="6" x="180" y="24" fill="#000"/><rect width="6" height="6" x="192" y="24" fill="#000"/><rect width="6" height="6" x="198" y="24" fill="#000"/><rect width="6" height="6" x="204" y="24" fill="#000"/><rect width="6" height="6" x="216" y="24" fill="#000"/><rect width="6" height="6" x="0" y="30" fill="#000"/><rect width="6" height="6" x="36" y="30" fill="#000"/><rect width="6" height="6" x="48" y="30" fill="#000"/><rect width="6" height="6" x="54" y="30" fill="#000"/><rect width="6" height="6" x="66" y="30" fill="#000"/><rect width="6" height="6" x="72" y="30" fill="#000"/><rect width="6" height="6" x="108" y="30" fill="#000"/><rect width="6" height="6" x="144" y="30" fill="#000"/><rect width="6" height="6" x="150" y="30" fill="#000"/><rect width="6" height="6" x="156" y="30" fill="#000"/><rect width="6" height="6" x="162" y="30" fill="#000"/><rect width="6" height="6" x="168" y="30" fill="#000"/><rect width="6" height="6" x="180" y="30" fill="#000"/><rect width="6" height="6" x="216" y="30" fill="#000"/><rect width="6" height="6" x="0" y="36" fill="#000"/><rect width="6" height="6" x="6" y="36" fill="#000"/><rect width="6" height="6" x="12" y="36" fill="#000"/><rect width="6" height="6" x="18" y="36" fill="#000"/><rect width="6" height="6" x="24" y="36" fill="#000"/><rect width="6" height="6" x="30" y="36" fill="#000"/><rect width="6" height="6" x="36" y="36" fill="#000"/><rect width="6" height="6" x="48" y="36" fill="#000"/><rect width="6" height="6" x="60" y="36" fill="#000"/><rect width="6" height="6" x="72" y="36" fill="#000"/><rect width="6" height="6" x="84" y="36" fill="#000"/><rect width="6" height="6" x="96" y="36" fill="#000"/><rect width="6" height="6" x="108" y="36" fill="#000"/><rect width="6" height="6" x="120" y="36" fill="#000"/><rect width="6" height="6" x="132" y="36" fill="#000"/><rect width="6" height="6" x="144" y="36" fill="#000"/><rect width="6" height="6" x="156" y="36" fill="#000"/><rect width="6" height="6" x="168" y="36" fill="#000"/><rect width="6" height="6" x="180" y="36" fill="#000"/><rect width="6" height="6" x="186" y="36" fill="#000"/><rect width="6" height="6" x="192" y="36" fill="#000"/><rect width="6" height="6" x="198" y="36" fill="#000"/><rect width="6" height="6" x="204" y="36" fill="#000"/><rect width="6" height="6" x="210" y="36" fill="#000"/><rect width="6" height="6" x="216" y="36" fill="#000"/><rect width="6" height="6" x="48" y="42" fill="#000"/><rect width="6" height="6" x="60" y="42" fill="#000"/><rect width="6" height="6" x="66" y="42" fill="#000"/><rect width="6" height="6" x="90" y="42" fill="#000"/><rect width="6" height="6" x="102" y="42" fill="#000"/><rect width="6" height="6" x="120" y="42" fill="#000"/><rect width="6" height="6" x="126" y="42" fill="#000"/><rect width="6" height="6" x="132" y="42" fill="#000"/><rect width="6" height="6" x="138" y="42" fill="#000"/><rect width="6" height="6" x="150" y="42" fill="#000"/><rect width="6" height="6" x="168" y="42" fill="#000"/><rect width="6" height="6" x="12" y="48" fill="#000"/><rect width="6" height="6" x="18" y="48" fill="#000"/><rect width="6" height="6" x="24" y="48" fill="#000"/><rect width="6" height="6" x="36" y="48" fill="#000"/><rect width="6" height="6" x="48" y="48" fill="#000"/><rect width="6" height="6" x="72" y="48" fill="#000"/><rect width="6" height="6" x="84" y="48" fill="#000"/><rect width="6" height="6" x="90" y="48" fill="#000"/><rect width="6" height="6" x="96" y="48" fill="#000"/><rect width="6" height="6" x="102" y="48" fill="#000"/><rect width="6" height="6" x="108" y="48" fill="#000"/><rect width="6" height="6" x="114" y="48" fill="#000"/><rect width="6" height="6" x="126" y="48" fill="#000"/><rect width="6" height="6" x="132" y="48" fill="#000"/><rect width="6" height="6" x="144" y="48" fill="#000"/><rect width="6" height="6" x="156" y="48" fill="#000"/><rect width="6" height="6" x="174" y="48" fill="#000"/><rect width="6" height="6" x="180" y="48" fill="#000"/><rect width="6" height="6" x="186" y="48" fill="#000"/><rect width="6" height="6" x="204" y="48" fill="#000"/><rect width="6" height="6" x="210" y="48" fill="#000"/><rect width="6" height="6" x="216" y="48" fill="#000"/><rect width="6" height="6" x="0" y="54" fill="#000"/><rect width="6" height="6" x="6" y="54" fill="#000"/><rect width="6" height="6" x="42" y="54" fill="#000"/><rect width="6" height="6" x="48" y="54" fill="#000"/><rect width="6" height="6" x="54" y="54" fill="#000"/><rect width="6" height="6" x="66" y="54" fill="#000"/><rect width="6" height="6" x="72" y="54" fill="#000"/><rect width="6" height="6" x="78" y="54" fill="#000"/><rect width="6" height="6" x="84" y="54" fill="#000"/><rect width="6" height="6" x="102" y="54" fill="#000"/><rect width="6" height="6" x="114" y="54" fill="#000"/><rect width="6" height="6" x="144" y="54" fill="#000"/><rect width="6" height="6" x="150" y="54" fill="#000"/><rect width="6" height="6" x="162" y="54" fill="#000"/><rect width="6" height="6" x="186" y="54" fill="#000"/><rect width="6" height="6" x="0" y="60" fill="#000"/><rect width="6" height="6" x="6" y="60" fill="#000"/><rect width="6" height="6" x="12" y="60" fill="#000"/><rect width="6" height="6" x="30" y="60" fill="#000"/><rect width="6" height="6" x="36" y="60" fill="#000"/><rect width="6" height="6" x="48" y="60" fill="#000"/><rect width="6" height="6" x="54" y="60" fill="#000"/><rect width="6" height="6" x="72" y="60" fill="#000"/><rect width="6" height="6" x="78" y="60" fill="#000"/><rect width="6" height="6" x="90" y="60" fill="#000"/><rect width="6" height="6" x="96" y="60" fill="#000"/><rect width="6" height="6" x="102" y="60" fill="#000"/><rect width="6" height="6" x="108" y="60" fill="#000"/><rect width="6" height="6" x="114" y="60" fill="#000"/><rect width="6" height="6" x="126" y="60" fill="#000"/><rect width="6" height="6" x="138" y="60" fill="#000"/><rect width="6" height="6" x="144" y="60" fill="#000"/><rect width="6" height="6" x="150" y="60" fill="#000"/><rect width="6" height="6" x="156" y="60" fill="#000"/><rect width="6" height="6" x="162" y="60" fill="#000"/><rect width="6" height="6" x="168" y="60" fill="#000"/><rect width="6" height="6" x="180" y="60" fill="#000"/><rect width="6" height="6" x="186" y="60" fill="#000"/><rect width="6" height="6" x="210" y="60" fill="#000"/><rect width="6" height="6" x="216" y="60" fill="#000"/><rect width="6" height="6" x="0" y="66" fill="#000"/><rect width="6" height="6" x="6" y="66" fill="#000"/><rect width="6" height="6" x="24" y="66" fill="#000"/><rect width="6" height="6" x="30" y="66" fill="#000"/><rect width="6" height="6" x="60" y="66" fill="#000"/><rect width="6" height="6" x="66" y="66" fill="#000"/><rect width="6" height="6" x="78" y="66" fill="#000"/><rect width="6" height="6" x="90" y="66" fill="#000"/><rect width="6" height="6" x="108" y="66" fill="#000"/><rect width="6" height="6" x="120" y="66" fill="#000"/><rect width="6" height="6" x="126" y="66" fill="#000"/><rect width="6" height="6" x="138" y="66" fill="#000"/><rect width="6" height="6" x="144" y="66" fill="#000"/><rect width="6" height="6" x="156" y="66" fill="#000"/><rect width="6" height="6" x="168" y="66" fill="#000"/><rect width="6" height="6" x="180" y="66" fill="#000"/><rect width="6" height="6" x="192" y="66" fill="#000"/><rect width="6" height="6" x="210" y="66" fill="#000"/><rect width="6" height="6" x="216" y="66" fill="#000"/><rect width="6" height="6" x="0" y="72" fill="#000"/><rect width="6" height="6" x="12" y="72" fill="#000"/><rect width="6" height="6" x="24" y="72" fill="#000"/><rect width="6" height="6" x="36" y="72" fill="#000"/><rect width="6" height="6" x="42" y="72" fill="#000"/><rect width="6" height="6" x="48" y="72" fill="#000"/><rect width="6" height="6" x="72" y="72" fill="#000"/><rect width="6" height="6" x="84" y="72" fill="#000"/><rect width="6" height="6" x="90" y="72" fill="#000"/><rect width="6" height="6" x="96" y="72" fill="#000"/><rect width="6" height="6" x="120" y="72" fill="#000"/><rect width="6" height="6" x="132" y="72" fill="#000"/><rect width="6" height="6" x="138" y="72" fill="#000"/><rect width="6" height="6" x="144" y="72" fill="#000"/><rect width="6" height="6" x="150" y="72" fill="#000"/><rect width="6" height="6" x="156" y="72" fill="#000"/><rect width="6" height="6" x="174" y="72" fill="#000"/><rect width="6" height="6" x="180" y="72" fill="#000"/><rect width="6" height="6" x="192" y="72" fill="#000"/><rect width="6" height="6" x="198" y="72" fill="#000"/><rect width="6" height="6" x="204" y="72" fill="#000"/><rect width="6" height="6" x="216" y="72" fill="#000"/><rect width="6" height="6" x="6" y="78" fill="#000"/><rect width="6" height="6" x="12" y="78" fill="#000"/><rect width="6" height="6" x="42" y="78" fill="#000"/><rect width="6" height="6" x="66" y="78" fill="#000"/><rect width="6" height="6" x="72" y="78" fill="#000"/><rect width="6" height="6" x="90" y="78" fill="#000"/><rect width="6" height="6" x="96" y="78" fill="#000"/><rect width="6" height="6" x="102" y="78" fill="#000"/><rect width="6" height="6" x="114" y="78" fill="#000"/><rect width="6" height="6" x="126" y="78" fill="#000"/><rect width="6" height="6" x="132" y="78" fill="#000"/><rect width="6" height="6" x="174" y="78" fill="#000"/><rect width="6" height="6" x="198" y="78" fill="#000"/><rect width="6" height="6" x="204" y="78" fill="#000"/><rect width="6" height="6" x="6" y="84" fill="#000"/><rect width="6" height="6" x="30" y="84" fill="#000"/><rect width="6" height="6" x="36" y="84" fill="#000"/><rect width="6" height="6" x="42" y="84" fill="#000"/><rect width="6" height="6" x="48" y="84" fill="#000"/><rect width="6" height="6" x="54" y="84" fill="#000"/><rect width="6" height="6" x="60" y="84" fill="#000"/><rect width="6" height="6" x="66" y="84" fill="#000"/><rect width="6" height="6" x="72" y="84" fill="#000"/><rect width="6" height="6" x="90" y="84" fill="#000"/><rect width="6" height="6" x="102" y="84" fill="#000"/><rect width="6" height="6" x="108" y="84" fill="#000"/><rect width="6" height="6" x="132" y="84" fill="#000"/><rect width="6" height="6" x="150" y="84" fill="#000"/><rect width="6" height="6" x="156" y="84" fill="#000"/><rect width="6" height="6" x="162" y="84" fill="#000"/><rect width="6" height="6" x="174" y="84" fill="#000"/><rect width="6" height="6" x="198" y="84" fill="#000"/><rect width="6" height="6" x="216" y="84" fill="#000"/><rect width="6" height="6" x="0" y="90" fill="#000"/><rect width="6" height="6" x="6" y="90" fill="#000"/><rect width="6" height="6" x="12" y="90" fill="#000"/><rect width="6" height="6" x="30" y="90" fill="#000"/><rect width="6" height="6" x="42" y="90" fill="#000"/><rect width="6" height="6" x="78" y="90" fill="#000"/><rect width="6" height="6" x="102" y="90" fill="#000"/><rect width="6" height="6" x="114" y="90" fill="#000"/><rect width="6" height="6" x="120" y="90" fill="#000"/><rect width="6" height="6" x="126" y="90" fill="#000"/><rect width="6" height="6" x="144" y="90" fill="#000"/><rect width="6" height="6" x="156" y="90" fill="#000"/><rect width="6" height="6" x="168" y="90" fill="#000"/><rect width="6" height="6" x="174" y="90" fill="#000"/><rect width="6" height="6" x="186" y="90" fill="#000"/><rect width="6" height="6" x="192" y="90" fill="#000"/><rect width="6" height="6" x="210" y="90" fill="#000"/><rect width="6" height="6" x="216" y="90" fill="#000"/><rect width="6" height="6" x="6" y="96" fill="#000"/><rect width="6" height="6" x="24" y="96" fill="#000"/><rect width="6" height="6" x="30" y="96" fill="#000"/><rect width="6" height="6" x="36" y="96" fill="#000"/><rect width="6" height="6" x="60" y="96" fill="#000"/><rect width="6" height="6" x="66" y="96" fill="#000"/><rect width="6" height="6" x="72" y="96" fill="#000"/><rect width="6" height="6" x="84" y="96" fill="#000"/><rect width="6" height="6" x="96" y="96" fill="#000"/><rect width="6" height="6" x="114" y="96" fill="#000"/><rect width="6" height="6" x="120" y="96" fill="#000"/><rect width="6" height="6" x="138" y="96" fill="#000"/><rect width="6" height="6" x="144" y="96" fill="#000"/><rect width="6" height="6" x="150" y="96" fill="#000"/><rect width="6" height="6" x="174" y="96" fill="#000"/><rect width="6" height="6" x="180" y="96" fill="#000"/><rect width="6" height="6" x="192" y="96" fill="#000"/><rect width="6" height="6" x="204" y="96" fill="#000"/><rect width="6" height="6" x="0" y="102" fill="#000"/><rect width="6" height="6" x="18" y="102" fill="#000"/><rect width="6" height="6" x="42" y="102" fill="#000"/><rect width="6" height="6" x="48" y="102" fill="#000"/><rect width="6" height="6" x="54" y="102" fill="#000"/><rect width="6" height="6" x="66" y="102" fill="#000"/><rect width="6" height="6" x="72" y="102" fill="#000"/><rect width="6" height="6" x="84" y="102" fill="#000"/><rect width="6" height="6" x="120" y="102" fill="#000"/><rect width="6" height="6" x="132" y="102" fill="#000"/><rect width="6" height="6" x="138" y="102" fill="#000"/><rect width="6" height="6" x="168" y="102" fill="#000"/><rect width="6" height="6" x="204" y="102" fill="#000"/><rect width="6" height="6" x="18" y="108" fill="#000"/><rect width="6" height="6" x="24" y="108" fill="#000"/><rect width="6" height="6" x="36" y="108" fill="#000"/><rect width="6" height="6" x="42" y="108" fill="#000"/><rect width="6" height="6" x="48" y="108" fill="#000"/><rect width="6" height="6" x="60" y="108" fill="#000"/><rect width="6" height="6" x="72" y="108" fill="#000"/><rect width="6" height="6" x="84" y="108" fill="#000"/><rect width="6" height="6" x="90" y="108" fill="#000"/><rect width="6" height="6" x="96" y="108" fill="#000"/><rect width="6" height="6" x="108" y="108" fill="#000"/><rect width="6" height="6" x="120" y="108" fill="#000"/><rect width="6" height="6" x="144" y="108" fill="#000"/><rect width="6" height="6" x="162" y="108" fill="#000"/><rect width="6" height="6" x="174" y="108" fill="#000"/><rect width="6" height="6" x="186" y="108" fill="#000"/><rect width="6" height="6" x="192" y="108" fill="#000"/><rect width="6" height="6" x="198" y="108" fill="#000"/><rect width="6" height="6" x="204" y="108" fill="#000"/><rect width="6" height="6" x="210" y="108" fill="#000"/><rect width="6" height="6" x="216" y="108" fill="#000"/><rect width="6" height="6" x="12" y="114" fill="#000"/><rect width="6" height="6" x="18" y="114" fill="#000"/><rect width="6" height="6" x="42" y="114" fill="#000"/><rect width="6" height="6" x="48" y="114" fill="#000"/><rect width="6" height="6" x="54" y="114" fill="#000"/><rect width="6" height="6" x="66" y="114" fill="#000"/><rect width="6" height="6" x="78" y="114" fill="#000"/><rect width="6" height="6" x="84" y="114" fill="#000"/><rect width="6" height="6" x="96" y="114" fill="#000"/><rect width="6" height="6" x="114" y="114" fill="#000"/><rect width="6" height="6" x="120" y="114" fill="#000"/><rect width="6" height="6" x="132" y="114" fill="#000"/><rect width="6" height="6" x="162" y="114" fill="#000"/><rect width="6" height="6" x="168" y="114" fill="#000"/><rect width="6" height="6" x="174" y="114" fill="#000"/><rect width="6" height="6" x="180" y="114" fill="#000"/><rect width="6" height="6" x="186" y="114" fill="#000"/><rect width="6" height="6" x="192" y="114" fill="#000"/><rect width="6" height="6" x="216" y="114" fill="#000"/><rect width="6" height="6" x="6" y="120" fill="#000"/><rect width="6" height="6" x="30" y="120" fill="#000"/><rect width="6" height="6" x="36" y="120" fill="#000"/><rect width="6" height="6" x="42" y="120" fill="#000"/><rect width="6" height="6" x="54" y="120" fill="#000"/><rect width="6" height="6" x="60" y="120" fill="#000"/><rect width="6" height="6" x="66" y="120" fill="#000"/><rect width="6" height="6" x="72" y="120" fill="#000"/><rect width="6" height="6" x="78" y="120" fill="#000"/><rect width="6" height="6" x="84" y="120" fill="#000"/><rect width="6" height="6" x="96" y="120" fill="#000"/><rect width="6" height="6" x="132" y="120" fill="#000"/><rect width="6" height="6" x="138" y="120" fill="#000"/><rect width="6" height="6" x="150" y="120" fill="#000"/><rect width="6" height="6" x="156" y="120" fill="#000"/><rect width="6" height="6" x="174" y="120" fill="#000"/><rect width="6" height="6" x="180" y="120" fill="#000"/><rect width="6" height="6" x="186" y="120" fill="#000"/><rect width="6" height="6" x="192" y="120" fill="#000"/><rect width="6" height="6" x="198" y="120" fill="#000"/><rect width="6" height="6" x="204" y="120" fill="#000"/><rect width="6" height="6" x="6" y="126" fill="#000"/><rect width="6" height="6" x="12" y="126" fill="#000"/><rect width="6" height="6" x="30" y="126" fill="#000"/><rect width="6" height="6" x="78" y="126" fill="#000"/><rect width="6" height="6" x="114" y="126" fill="#000"/><rect width="6" height="6" x="120" y="126" fill="#000"/><rect width="6" height="6" x="132" y="126" fill="#000"/><rect width="6" height="6" x="138" y="126" fill="#000"/><rect width="6" height="6" x="144" y="126" fill="#000"/><rect width="6" height="6" x="156" y="126" fill="#000"/><rect width="6" height="6" x="186" y="126" fill="#000"/><rect width="6" height="6" x="204" y="126" fill="#000"/><rect width="6" height="6" x="210" y="126" fill="#000"/><rect width="6" height="6" x="0" y="132" fill="#000"/><rect width="6" height="6" x="6" y="132" fill="#000"/><rect width="6" height="6" x="18" y="132" fill="#000"/><rect width="6" height="6" x="24" y="132" fill="#000"/><rect width="6" height="6" x="30" y="132" fill="#000"/><rect width="6" height="6" x="36" y="132" fill="#000"/><rect width="6" height="6" x="42" y="132" fill="#000"/><rect width="6" height="6" x="60" y="132" fill="#000"/><rect width="6" height="6" x="78" y="132" fill="#000"/><rect width="6" height="6" x="90" y="132" fill="#000"/><rect width="6" height="6" x="96" y="132" fill="#000"/><rect width="6" height="6" x="102" y="132" fill="#000"/><rect width="6" height="6" x="114" y="132" fill="#000"/><rect width="6" height="6" x="138" y="132" fill="#000"/><rect width="6" height="6" x="144" y="132" fill="#000"/><rect width="6" height="6" x="162" y="132" fill="#000"/><rect width="6" height="6" x="174" y="132" fill="#000"/><rect width="6" height="6" x="210" y="132" fill="#000"/><rect width="6" height="6" x="216" y="132" fill="#000"/><rect width="6" height="6" x="0" y="138" fill="#000"/><rect width="6" height="6" x="54" y="138" fill="#000"/><rect width="6" height="6" x="60" y="138" fill="#000"/><rect width="6" height="6" x="72" y="138" fill="#000"/><rect width="6" height="6" x="78" y="138" fill="#000"/><rect width="6" height="6" x="84" y="138" fill="#000"/><rect width="6" height="6" x="90" y="138" fill="#000"/><rect width="6" height="6" x="102" y="138" fill="#000"/><rect width="6" height="6" x="108" y="138" fill="#000"/><rect width="6" height="6" x="120" y="138" fill="#000"/><rect width="6" height="6" x="144" y="138" fill="#000"/><rect width="6" height="6" x="156" y="138" fill="#000"/><rect width="6" height="6" x="174" y="138" fill="#000"/><rect width="6" height="6" x="186" y="138" fill="#000"/><rect width="6" height="6" x="216" y="138" fill="#000"/><rect width="6" height="6" x="12" y="144" fill="#000"/><rect width="6" height="6" x="18" y="144" fill="#000"/><rect width="6" height="6" x="24" y="144" fill="#000"/><rect width="6" height="6" x="36" y="144" fill="#000"/><rect width="6" height="6" x="48" y="144" fill="#000"/><rect width="6" height="6" x="54" y="144" fill="#000"/><rect width="6" height="6" x="66" y="144" fill="#000"/><rect width="6" height="6" x="72" y="144" fill="#000"/><rect width="6" height="6" x="90" y="144" fill="#000"/><rect width="6" height="6" x="102" y="144" fill="#000"/><rect width="6" height="6" x="108" y="144" fill="#000"/><rect width="6" height="6" x="120" y="144" fill="#000"/><rect width="6" height="6" x="126" y="144" fill="#000"/><rect width="6" height="6" x="138" y="144" fill="#000"/><rect width="6" height="6" x="174" y="144" fill="#000"/><rect width="6" height="6" x="180" y="144" fill="#000"/><rect width="6" height="6" x="192" y="144" fill="#000"/><rect width="6" height="6" x="198" y="144" fill="#000"/><rect width="6" height="6" x="204" y="144" fill="#000"/><rect width="6" height="6" x="210" y="144" fill="#000"/><rect width="6" height="6" x="216" y="144" fill="#000"/><rect width="6" height="6" x="0" y="150" fill="#000"/><rect width="6" height="6" x="6" y="150" fill="#000"/><rect width="6" height="6" x="18" y="150" fill="#000"/><rect width="6" height="6" x="30" y="150" fill="#000"/><rect width="6" height="6" x="54" y="150" fill="#000"/><rect width="6" height="6" x="60" y="150" fill="#000"/><rect width="6" height="6" x="72" y="150" fill="#000"/><rect width="6" height="6" x="78" y="150" fill="#000"/><rect width="6" height="6" x="84" y="150" fill="#000"/><rect width="6" height="6" x="108" y="150" fill="#000"/><rect width="6" height="6" x="120" y="150" fill="#000"/><rect width="6" height="6" x="126" y="150" fill="#000"/><rect width="6" height="6" x="144" y="150" fill="#000"/><rect width="6" height="6" x="156" y="150" fill="#000"/><rect width="6" height="6" x="186" y="150" fill="#000"/><rect width="6" height="6" x="198" y="150" fill="#000"/><rect width="6" height="6" x="0" y="156" fill="#000"/><rect width="6" height="6" x="12" y="156" fill="#000"/><rect width="6" height="6" x="18" y="156" fill="#000"/><rect width="6" height="6" x="24" y="156" fill="#000"/><rect width="6" height="6" x="30" y="156" fill="#000"/><rect width="6" height="6" x="36" y="156" fill="#000"/><rect width="6" height="6" x="42" y="156" fill="#000"/><rect width="6" height="6" x="48" y="156" fill="#000"/><rect width="6" height="6" x="54" y="156" fill="#000"/><rect width="6" height="6" x="60" y="156" fill="#000"/><rect width="6" height="6" x="66" y="156" fill="#000"/><rect width="6" height="6" x="90" y="156" fill="#000"/><rect width="6" height="6" x="102" y="156" fill="#000"/><rect width="6" height="6" x="132" y="156" fill="#000"/><rect width="6" height="6" x="150" y="156" fill="#000"/><rect width="6" height="6" x="156" y="156" fill="#000"/><rect width="6" height="6" x="162" y="156" fill="#000"/><rect width="6" height="6" x="180" y="156" fill="#000"/><rect width="6" height="6" x="204" y="156" fill="#000"/><rect width="6" height="6" x="210" y="156" fill="#000"/><rect width="6" height="6" x="216" y="156" fill="#000"/><rect width="6" height="6" x="0" y="162" fill="#000"/><rect width="6" height="6" x="12" y="162" fill="#000"/><rect width="6" height="6" x="30" y="162" fill="#000"/><rect width="6" height="6" x="42" y="162" fill="#000"/><rect width="6" height="6" x="48" y="162" fill="#000"/><rect width="6" height="6" x="66" y="162" fill="#000"/><rect width="6" height="6" x="72" y="162" fill="#000"/><rect width="6" height="6" x="96" y="162" fill="#000"/><rect width="6" height="6" x="108" y="162" fill="#000"/><rect width="6" height="6" x="114" y="162" fill="#000"/><rect width="6" height="6" x="132" y="162" fill="#000"/><rect width="6" height="6" x="144" y="162" fill="#000"/><rect width="6" height="6" x="168" y="162" fill="#000"/><rect width="6" height="6" x="174" y="162" fill="#000"/><rect width="6" height="6" x="186" y="162" fill="#000"/><rect width="6" height="6" x="210" y="162" fill="#000"/><rect width="6" height="6" x="0" y="168" fill="#000"/><rect width="6" height="6" x="12" y="168" fill="#000"/><rect width="6" height="6" x="24" y="168" fill="#000"/><rect width="6" height="6" x="30" y="168" fill="#000"/><rect width="6" height="6" x="36" y="168" fill="#000"/><rect width="6" height="6" x="42" y="168" fill="#000"/><rect width="6" height="6" x="48" y="168" fill="#000"/><rect width="6" height="6" x="60" y="168" fill="#000"/><rect width="6" height="6" x="78" y="168" fill="#000"/><rect width="6" height="6" x="102" y="168" fill="#000"/><rect width="6" height="6" x="108" y="168" fill="#000"/><rect width="6" height="6" x="114" y="168" fill="#000"/><rect width="6" height="6" x="120" y="168" fill="#000"/><rect width="6" height="6" x="132" y="168" fill="#000"/><rect width="6" height="6" x="144" y="168" fill="#000"/><rect width="6" height="6" x="150" y="168" fill="#000"/><rect width="6" height="6" x="156" y="168" fill="#000"/><rect width="6" height="6" x="168" y="168" fill="#000"/><rect width="6" height="6" x="174" y="168" fill="#000"/><rect width="6" height="6" x="180" y="168" fill="#000"/><rect width="6" height="6" x="186" y="168" fill="#000"/><rect width="6" height="6" x="192" y="168" fill="#000"/><rect width="6" height="6" x="204" y="168" fill="#000"/><rect width="6" height="6" x="48" y="174" fill="#000"/><rect width="6" height="6" x="54" y="174" fill="#000"/><rect width="6" height="6" x="60" y="174" fill="#000"/><rect width="6" height="6" x="72" y="174" fill="#000"/><rect width="6" height="6" x="78" y="174" fill="#000"/><rect width="6" height="6" x="84" y="174" fill="#000"/><rect width="6" height="6" x="90" y="174" fill="#000"/><rect width="6" height="6" x="108" y="174" fill="#000"/><rect width="6" height="6" x="126" y="174" fill="#000"/><rect width="6" height="6" x="132" y="174" fill="#000"/><rect width="6" height="6" x="138" y="174" fill="#000"/><rect width="6" height="6" x="150" y="174" fill="#000"/><rect width="6" height="6" x="162" y="174" fill="#000"/><rect width="6" height="6" x="168" y="174" fill="#000"/><rect width="6" height="6" x="192" y="174" fill="#000"/><rect width="6" height="6" x="210" y="174" fill="#000"/><rect width="6" height="6" x="0" y="180" fill="#000"/><rect width="6" height="6" x="6" y="180" fill="#000"/><rect width="6" height="6" x="12" y="180" fill="#000"/><rect width="6" height="6" x="18" y="180" fill="#000"/><rect width="6" height="6" x="24" y="180" fill="#000"/><rect width="6" height="6" x="30" y="180" fill="#000"/><rect width="6" height="6" x="36" y="180" fill="#000"/><rect width="6" height="6" x="72" y="180" fill="#000"/><rect width="6" height="6" x="84" y="180" fill="#000"/><rect width="6" height="6" x="90" y="180" fill="#000"/><rect width="6" height="6" x="96" y="180" fill="#000"/><rect width="6" height="6" x="108" y="180" fill="#000"/><rect width="6" height="6" x="114" y="180" fill="#000"/><rect width="6" height="6" x="150" y="180" fill="#000"/><rect width="6" height="6" x="156" y="180" fill="#000"/><rect width="6" height="6" x="168" y="180" fill="#000"/><rect width="6" height="6" x="180" y="180" fill="#000"/><rect width="6" height="6" x="192" y="180" fill="#000"/><rect width="6" height="6" x="198" y="180" fill="#000"/><rect width="6" height="6" x="210" y="180" fill="#000"/><rect width="6" height="6" x="216" y="180" fill="#000"/><rect width="6" height="6" x="0" y="186" fill="#000"/><rect width="6" height="6" x="36" y="186" fill="#000"/><rect width="6" height="6" x="60" y="186" fill="#000"/><rect width="6" height="6" x="66" y="186" fill="#000"/><rect width="6" height="6" x="84" y="186" fill="#000"/><rect width="6" height="6" x="102" y="186" fill="#000"/><rect width="6" height="6" x="132" y="186" fill="#000"/><rect width="6" height="6" x="138" y="186" fill="#000"/><rect width="6" height="6" x="156" y="186" fill="#000"/><rect width="6" height="6" x="168" y="186" fill="#000"/><rect width="6" height="6" x="192" y="186" fill="#000"/><rect width="6" height="6" x="216" y="186" fill="#000"/><rect width="6" height="6" x="0" y="192" fill="#000"/><rect width="6" height="6" x="12" y="192" fill="#000"/><rect width="6" height="6" x="18" y="192" fill="#000"/><rect width="6" height="6" x="24" y="192" fill="#000"/><rect width="6" height="6" x="36" y="192" fill="#000"/><rect width="6" height="6" x="48" y="192" fill="#000"/><rect width="6" height="6" x="60" y="192" fill="#000"/><rect width="6" height="6" x="66" y="192" fill="#000"/><rect width="6" height="6" x="72" y="192" fill="#000"/><rect width="6" height="6" x="78" y="192" fill="#000"/><rect width="6" height="6" x="90" y="192" fill="#000"/><rect width="6" height="6" x="102" y="192" fill="#000"/><rect width="6" height="6" x="108" y="192" fill="#000"/><rect width="6" height="6" x="120" y="192" fill="#000"/><rect width="6" height="6" x="138" y="192" fill="#000"/><rect width="6" height="6" x="144" y="192" fill="#000"/><rect width="6" height="6" x="150" y="192" fill="#000"/><rect width="6" height="6" x="156" y="192" fill="#000"/><rect width="6" height="6" x="162" y="192" fill="#000"/><rect width="6" height="6" x="168" y="192" fill="#000"/><rect width="6" height="6" x="174" y="192" fill="#000"/><rect width="6" height="6" x="180" y="192" fill="#000"/><rect width="6" height="6" x="186" y="192" fill="#000"/><rect width="6" height="6" x="192" y="192" fill="#000"/><rect width="6" height="6" x="204" y="192" fill="#000"/><rect width="6" height="6" x="210" y="192" fill="#000"/><rect width="6" height="6" x="0" y="198" fill="#000"/><rect width="6" height="6" x="12" y="198" fill="#000"/><rect width="6" height="6" x="18" y="198" fill="#000"/><rect width="6" height="6" x="24" y="198" fill="#000"/><rect width="6" height="6" x="36" y="198" fill="#000"/><rect width="6" height="6" x="48" y="198" fill="#000"/><rect width="6" height="6" x="66" y="198" fill="#000"/><rect width="6" height="6" x="72" y="198" fill="#000"/><rect width="6" height="6" x="78" y="198" fill="#000"/><rect width="6" height="6" x="96" y="198" fill="#000"/><rect width="6" height="6" x="102" y="198" fill="#000"/><rect width="6" height="6" x="108" y="198" fill="#000"/><rect width="6" height="6" x="120" y="198" fill="#000"/><rect width="6" height="6" x="126" y="198" fill="#000"/><rect width="6" height="6" x="132" y="198" fill="#000"/><rect width="6" height="6" x="180" y="198" fill="#000"/><rect width="6" height="6" x="192" y="198" fill="#000"/><rect width="6" height="6" x="198" y="198" fill="#000"/><rect width="6" height="6" x="204" y="198" fill="#000"/><rect width="6" height="6" x="0" y="204" fill="#000"/><rect width="6" height="6" x="12" y="204" fill="#000"/><rect width="6" height="6" x="18" y="204" fill="#000"/><rect width="6" height="6" x="24" y="204" fill="#000"/><rect width="6" height="6" x="36" y="204" fill="#000"/><rect width="6" height="6" x="48" y="204" fill="#000"/><rect width="6" height="6" x="54" y="204" fill="#000"/><rect width="6" height="6" x="60" y="204" fill="#000"/><rect width="6" height="6" x="72" y="204" fill="#000"/><rect width="6" height="6" x="84" y="204" fill="#000"/><rect width="6" height="6" x="90" y="204" fill="#000"/><rect width="6" height="6" x="108" y="204" fill="#000"/><rect width="6" height="6" x="120" y="204" fill="#000"/><rect width="6" height="6" x="132" y="204" fill="#000"/><rect width="6" height="6" x="138" y="204" fill="#000"/><rect width="6" height="6" x="144" y="204" fill="#000"/><rect width="6" height="6" x="150" y="204" fill="#000"/><rect width="6" height="6" x="162" y="204" fill="#000"/><rect width="6" height="6" x="168" y="204" fill="#000"/><rect width="6" height="6" x="174" y="204" fill="#000"/><rect width="6" height="6" x="186" y="204" fill="#000"/><rect width="6" height="6" x="216" y="204" fill="#000"/><rect width="6" height="6" x="0" y="210" fill="#000"/><rect width="6" height="6" x="36" y="210" fill="#000"/><rect width="6" height="6" x="54" y="210" fill="#000"/><rect width="6" height="6" x="60" y="210" fill="#000"/><rect width="6" height="6" x="84" y="210" fill="#000"/><rect width="6" height="6" x="96" y="210" fill="#000"/><rect width="6" height="6" x="102" y="210" fill="#000"/><rect width="6" height="6" x="108" y="210" fill="#000"/><rect width="6" height="6" x="114" y="210" fill="#000"/><rect width="6" height="6" x="126" y="210" fill="#000"/><rect width="6" height="6" x="138" y="210" fill="#000"/><rect width="6" height="6" x="162" y="210" fill="#000"/><rect width="6" height="6" x="168" y="210" fill="#000"/><rect width="6" height="6" x="180" y="210" fill="#000"/><rect width="6" height="6" x="186" y="210" fill="#000"/><rect width="6" height="6" x="216" y="210" fill="#000"/><rect width="6" height="6" x="0" y="216" fill="#000"/><rect width="6" height="6" x="6" y="216" fill="#000"/><rect width="6" height="6" x="12" y="216" fill="#000"/><rect width="6" height="6" x="18" y="216" fill="#000"/><rect width="6" height="6" x="24" y="216" fill="#000"/><rect width="6" height="6" x="30" y="216" fill="#000"/><rect width="6" height="6" x="36" y="216" fill="#000"/><rect width="6" height="6" x="54" y="216" fill="#000"/><rect width="6" height="6" x="60" y="216" fill="#000"/><rect width="6" height="6" x="66" y="216" fill="#000"/><rect width="6" height="6" x="72" y="216" fill="#000"/><rect width="6" height="6" x="78" y="216" fill="#000"/><rect width="6" height="6" x="84" y="216" fill="#000"/><rect width="6" height="6" x="90" y="216" fill="#000"/><rect width="6" height="6" x="102" y="216" fill="#000"/><rect width="6" height="6" x="126" y="216" fill="#000"/><rect width="6" height="6" x="132" y="216" fill="#000"/><rect width="6" height="6" x="138" y="216" fill="#000"/><rect width="6" height="6" x="144" y="216" fill="#000"/><rect width="6" height="6" x="150" y="216" fill="#000"/><rect width="6" height="6" x="156" y="216" fill="#000"/><rect width="6" height="6" x="198" y="216" fill="#000"/><rect width="6" height="6" x="204" y="216" fill="#000"/><rect width="6" height="6" x="210" y="216" fill="#000"/><rect width="6" height="6" x="216" y="216" fill="#000"/></svg>